<svg xmlns="http://www.w3.org/2000/svg" xmlns:xlink="http://www.w3.org/1999/xlink" width="500" zoomAndPan="magnify" viewBox="0 0 375 374.999991" height="500" preserveAspectRatio="xMidYMid meet" version="1.0"><defs><clipPath id="86828cf75d"><path d="M 244 0 L 375 0 L 375 92.128906 L 244 92.128906 Z M 244 0 " clip-rule="nonzero"/></clipPath><clipPath id="f2810094ca"><path d="M 0 313 L 111 313 L 111 375 L 0 375 Z M 0 313 " clip-rule="nonzero"/></clipPath><clipPath id="221351a327"><path d="M 20.699219 282.882812 L 133.070312 375.3125 L 37.78125 491.160156 L -74.589844 398.730469 Z M 20.699219 282.882812 " clip-rule="nonzero"/></clipPath><clipPath id="79e834495b"><path d="M 20.699219 282.882812 L 133.070312 375.3125 L 37.78125 491.160156 L -74.589844 398.730469 Z M 20.699219 282.882812 " clip-rule="nonzero"/></clipPath></defs><rect x="-37.5" width="450" fill="#ffffff" y="-37.499999" height="449.999989" fill-opacity="1"/><rect x="-37.5" width="450" fill="#ffffff" y="-37.499999" height="449.999989" fill-opacity="1"/><g clip-path="url(#86828cf75d)"><path fill="#fffad1" d="M 385.320312 -7.621094 L 385.320312 92.480469 C 385.320312 92.480469 359.523438 50.023438 297.464844 45.230469 C 235.410156 40.441406 244.769531 -7.621094 244.769531 -7.621094 Z M 385.320312 -7.621094 " fill-opacity="1" fill-rule="nonzero"/></g><g clip-path="url(#f2810094ca)"><g clip-path="url(#221351a327)"><g clip-path="url(#79e834495b)"><path fill="#deebf8" d="M 109.183594 365.820312 C 113.179688 378.582031 109.519531 393.714844 103.238281 406.347656 C 97.007812 418.914062 88.160156 428.976562 78.296875 437.640625 C 68.445312 446.425781 57.648438 453.863281 45.054688 457.65625 C 32.464844 461.449219 18.214844 461.710938 5.199219 457.28125 C -7.941406 452.863281 -19.714844 443.867188 -26.546875 432.195312 C -33.257812 420.515625 -35.03125 406.160156 -35.507812 391.621094 C -36.042969 377.144531 -35.402344 362.492188 -29.492188 349.894531 C -23.648438 337.242188 -12.601562 326.585938 0.503906 320.363281 C 13.613281 314.140625 28.777344 312.351562 42.699219 315.128906 C 56.550781 317.851562 69.222656 325.195312 81.355469 334.03125 C 93.542969 342.800781 105.128906 353.128906 109.183594 365.820312 Z M 109.183594 365.820312 " fill-opacity="1" fill-rule="nonzero"/></g></g></g></svg>