<svg xmlns="http://www.w3.org/2000/svg" xmlns:xlink="http://www.w3.org/1999/xlink" width="500" zoomAndPan="magnify" viewBox="0 0 375 374.999991" height="500" preserveAspectRatio="xMidYMid meet" version="1.0"><defs><clipPath id="ff353a6d49"><path d="M 0 267 L 150 267 L 150 375 L 0 375 Z M 0 267 " clip-rule="nonzero"/></clipPath><clipPath id="e40274d679"><path d="M 25.640625 224.734375 L 180.875 352.417969 L 49.382812 512.285156 L -105.855469 384.601562 Z M 25.640625 224.734375 " clip-rule="nonzero"/></clipPath><clipPath id="ee07ac5d3c"><path d="M 25.640625 224.734375 L 180.875 352.417969 L 49.382812 512.285156 L -105.855469 384.601562 Z M 25.640625 224.734375 " clip-rule="nonzero"/></clipPath></defs><rect x="-37.5" width="450" fill="#ffffff" y="-37.499999" height="449.999989" fill-opacity="1"/><rect x="-37.5" width="450" fill="#ffffff" y="-37.499999" height="449.999989" fill-opacity="1"/><path fill="#fffad1" d="M 432.867188 -29.710938 L 432.867188 165.785156 C 432.867188 165.785156 382.480469 82.863281 261.292969 73.507812 C 140.09375 64.15625 158.378906 -29.710938 158.378906 -29.710938 Z M 432.867188 -29.710938 " fill-opacity="1" fill-rule="nonzero"/><g clip-path="url(#ff353a6d49)"><g clip-path="url(#e40274d679)"><g clip-path="url(#ee07ac5d3c)"><path fill="#deebf8" d="M 147.695312 339.132812 C 153.207031 356.730469 148.160156 377.605469 139.492188 395.03125 C 130.902344 412.363281 118.695312 426.246094 105.09375 438.195312 C 91.503906 450.3125 76.613281 460.570312 59.246094 465.804688 C 41.878906 471.035156 22.222656 471.394531 4.269531 465.285156 C -13.855469 459.191406 -30.09375 446.78125 -39.519531 430.683594 C -48.773438 414.574219 -51.21875 394.773438 -51.878906 374.71875 C -52.613281 354.753906 -51.730469 334.542969 -43.578125 317.167969 C -35.519531 299.714844 -20.28125 285.019531 -2.203125 276.4375 C 15.875 267.851562 36.792969 265.382812 55.992188 269.214844 C 75.097656 272.96875 92.578125 283.097656 109.3125 295.285156 C 126.121094 307.378906 142.105469 321.628906 147.695312 339.132812 Z M 147.695312 339.132812 " fill-opacity="1" fill-rule="nonzero"/></g></g></g></svg>